# xmcd
#
# Track frame offsets:
#	150
#	19128
#	31762
#	36635
#	50851
#	62656
#	81570
#	97795
#	110399
#	119339
#	139268
#	147467
#	156274
#	165400
#	179902
#	191588
#	209483
#
# Disc length: 2907 seconds
#
# Revision: 1
# Processed by: cddbd v1.5.2PL0 Copyright (c) Steve Scherf et al.
# Submitted via: ExactAudioCopy v0.95b3
#
DISCID=000b5911
DTITLE=Ralph McTell - Spiral Staircase 1968 (2007)
DYEAR=1900
DGENRE=
TTITLE0=Streets of London
TTITLE1=Mrs Adlams Angels
TTITLE2=Wino and the Mouse
TTITLE3=England 1914
TTITLE4=Last Train and Ride
TTITLE5=Fairground
TTITLE6=Spiral Staircase
TTITLE7=Kind Hearted Woman Blues
TTITLE8=Bright and Beautiful Things
TTITLE9=Daddy's Here
TTITLE10=Rizraklaru
TTITLE11=My Baby Keeps Staying Out All Night Long
TTITLE12=Terminus (Revisited)
TTITLE13=Spiral Staircase (Revisited)
TTITLE14=Last Train and Ride (Revisited)
TTITLE15=Fairground (Revisited)
TTITLE16=Terminus
EXTD=
EXTT0=
EXTT1=
EXTT2=
EXTT3=
EXTT4=
EXTT5=
EXTT6=
EXTT7=
EXTT8=
EXTT9=
EXTT10=
EXTT11=
EXTT12=
EXTT13=
EXTT14=
EXTT15=
EXTT16=
PLAYORDER=
